<?xml version="1.0" encoding="UTF-8"?>
<svg xmlns="http://www.w3.org/2000/svg" version="1.1" viewBox="0 0 394.1 107.2">
  <defs>
    <style>
      .cls-1 {
        fill: none;
        stroke-width: 3px;
      }

      .cls-1, .cls-2 {
        stroke: #e6e6e6;
        stroke-miterlimit: 10;
      }

      .cls-2 {
        fill: #f8b129;
      }

      .cls-3 {
        fill: #22397c;
      }

      .cls-3, .cls-4 {
        stroke-width: 0px;
      }

      .cls-4 {
        fill: #e6e6e6;
      }
    </style>
  </defs>
  <!-- Generator: Adobe Illustrator 28.6.0, SVG Export Plug-In . SVG Version: 1.0.2 Build 62)  -->
  <g>
    <g id="Warstwa_1">
      <rect class="cls-3" y="-1.7" width="394.1" height="108.9"/>
      <g>
        <path class="cls-4" d="M135.1,13.2v-1.4l5.7-7.2c.4-.5.8-1,1.2-1.3h-6.2v-1.3h8v1.3l-6.3,7.7-.7.8h7.1v1.3h-8.8Z"/>
        <path class="cls-4" d="M144.3,13.2l4.3-11.2h1.6l4.6,11.2h-1.7l-1.3-3.4h-4.7l-1.2,3.4h-1.6ZM147.6,8.6h3.8l-1.2-3.1c-.4-.9-.6-1.7-.8-2.3-.1.7-.3,1.4-.6,2.1l-1.2,3.3Z"/>
        <path class="cls-4" d="M155.9,13.2V2h1.5v5.5l5.6-5.5h2l-4.7,4.5,4.9,6.6h-1.9l-4-5.7-1.8,1.8v3.9h-1.6Z"/>
        <path class="cls-4" d="M166.3,8.9l-1.1.9v-1.3l1.1-.9V2h1.5v4.3l2.5-2.1v1.3l-2.5,2.1v4.2h5.6v1.3h-7v-4.3h-.1Z"/>
        <path class="cls-4" d="M173.8,13.2l4.3-11.2h1.6l4.6,11.2h-1.7l-1.3-3.4h-4.7l-1.2,3.4h-1.6ZM177.1,8.6h3.8l-1.2-3.1c-.4-.9-.6-1.7-.8-2.3-.1.7-.3,1.4-.6,2.1l-1.2,3.3Z"/>
        <path class="cls-4" d="M185.5,13.2V2h3.9c.9,0,1.5,0,2,.2.6.2,1.2.4,1.6.8.6.5,1,1.1,1.3,1.9s.4,1.7.4,2.7-.1,1.6-.3,2.3-.4,1.2-.8,1.6-.6.8-1,1-.8.4-1.3.6-1.1.2-1.8.2h-4,0ZM186.9,11.8h2.4c.7,0,1.3,0,1.7-.2s.8-.3,1-.6c.4-.4.6-.8.8-1.4.2-.6.3-1.3.3-2.2s-.2-2.1-.6-2.7c-.4-.6-.9-1-1.4-1.3-.4-.2-1-.2-1.9-.2h-2.4v8.5h0Z"/>
        <path class="cls-4" d="M201.1,13.2V2h8.1v1.3h-6.6v3.4h6.2v1.3h-6.2v3.8h6.9v1.3h-8.4Z"/>
        <path class="cls-4" d="M211.4,13.2V2h1.5v9.9h5.5v1.3h-7Z"/>
        <path class="cls-4" d="M220.2,13.2V2h8.1v1.3h-6.6v3.4h6.2v1.3h-6.2v3.8h6.9v1.3h-8.4Z"/>
        <path class="cls-4" d="M230.5,13.2V2h1.5v5.5l5.6-5.5h2l-4.7,4.5,4.9,6.6h-1.9l-4-5.7-1.8,1.8v3.9h-1.6Z"/>
        <path class="cls-4" d="M243.8,13.2V3.3h-3.7v-1.3h8.9v1.3h-3.7v9.9h-1.5Z"/>
        <path class="cls-4" d="M250.5,13.2V2h4.9c1,0,1.8,0,2.3.3s.9.5,1.2,1.1c.3.6.5,1.1.5,1.7s-.3,1.5-.8,2-1.3.9-2.4,1c.4.2.7.4.9.6.4.4.8.9,1.2,1.5l1.9,3h-1.9l-1.5-2.3c-.4-.7-.8-1.2-1.1-1.5s-.5-.6-.8-.8c-.2-.1-.4-.2-.7-.3h-2.5v5h-1.5.3,0ZM252,6.9h3.2c.7,0,1.2,0,1.6-.2s.7-.4.9-.7c.2-.3.3-.6.3-1s-.2-1-.6-1.3-1-.5-1.8-.5h-3.5v3.7h0Z"/>
        <path class="cls-4" d="M261.3,7.7c0-1.8.5-3.3,1.5-4.3s2.3-1.6,3.9-1.6,2,.2,2.8.7c.8.5,1.5,1.2,1.9,2.1.4.9.6,1.9.6,3s-.2,2.2-.7,3c-.5.9-1.1,1.6-1.9,2s-1.7.7-2.7.7-2-.2-2.8-.8-1.5-1.2-1.9-2.1-.6-1.8-.6-2.8h0ZM262.8,7.7c0,1.4.4,2.4,1.1,3.2.7.8,1.6,1.2,2.7,1.2s2-.4,2.8-1.2,1.1-1.9,1.1-3.3-.1-1.7-.5-2.4c-.3-.7-.8-1.2-1.4-1.6-.6-.4-1.3-.6-2-.6-1,0-2,.4-2.7,1.1s-1.1,1.9-1.1,3.6h0Z"/>
        <path class="cls-4" d="M273.8,13.2V2h2.2l2.6,7.9c.2.7.4,1.3.5,1.6.1-.4.3-1,.6-1.8l2.7-7.8h2v11.2h-1.4V3.8l-3.2,9.4h-1.3l-3.2-9.5v9.5h-1.5Z"/>
        <path class="cls-4" d="M286.9,13.2V2h8.1v1.3h-6.6v3.4h6.2v1.3h-6.2v3.8h6.9v1.3h-8.4Z"/>
        <path class="cls-4" d="M305.2,9.2l1.5.4c-.3,1.2-.9,2.1-1.7,2.8-.8.6-1.8,1-3,1s-2.2-.2-2.9-.7c-.8-.5-1.3-1.2-1.7-2.1s-.6-1.9-.6-3,.2-2.2.7-3c.4-.9,1.1-1.5,1.9-2s1.7-.7,2.7-.7,2.1.3,2.8.9c.8.6,1.3,1.4,1.6,2.4l-1.5.3c-.3-.8-.6-1.4-1.1-1.8-.5-.4-1.1-.6-1.9-.6s-1.6.2-2.1.6c-.6.4-1,1-1.2,1.7-.2.7-.4,1.4-.4,2.1s.1,1.8.4,2.5.7,1.2,1.3,1.6c.6.4,1.2.5,1.9.5s1.5-.2,2.1-.7,1-1.2,1.2-2.1h0Z"/>
        <path class="cls-4" d="M308.6,13.2V2h1.5v4.6h5.8V2h1.5v11.2h-1.5v-5.3h-5.8v5.3h-1.5Z"/>
        <path class="cls-4" d="M318.6,13.2l4.3-11.2h1.6l4.6,11.2h-1.7l-1.3-3.4h-4.7l-1.2,3.4h-1.6,0ZM321.8,8.6h3.8l-1.2-3.1c-.4-.9-.6-1.7-.8-2.3-.1.7-.3,1.4-.6,2.1l-1.2,3.3h0Z"/>
        <path class="cls-4" d="M330.2,13.2V2h1.5l5.9,8.8V2h1.4v11.2h-1.5l-5.9-8.8v8.8h-1.4Z"/>
        <path class="cls-4" d="M341.7,13.2V2h1.5v11.2h-1.5Z"/>
        <path class="cls-4" d="M353.8,9.2l1.5.4c-.3,1.2-.9,2.1-1.7,2.8-.8.6-1.8,1-3,1s-2.2-.2-2.9-.7c-.8-.5-1.3-1.2-1.7-2.1s-.6-1.9-.6-3,.2-2.2.7-3c.4-.9,1.1-1.5,1.9-2s1.7-.7,2.7-.7,2.1.3,2.8.9c.8.6,1.3,1.4,1.6,2.4l-1.5.3c-.3-.8-.6-1.4-1.1-1.8-.5-.4-1.1-.6-1.9-.6s-1.6.2-2.1.6c-.6.4-1,1-1.2,1.7-.2.7-.4,1.4-.4,2.1s.1,1.8.4,2.5.7,1.2,1.3,1.6c.6.4,1.2.5,1.9.5s1.5-.2,2.1-.7,1-1.2,1.2-2.1h0Z"/>
        <path class="cls-4" d="M356.2,13.2v-1.4l5.7-7.2c.4-.5.8-1,1.2-1.3h-6.2v-1.3h8v1.3l-6.3,7.7-.7.8h7.1v1.3h-8.8Z"/>
        <path class="cls-4" d="M366.6,13.2V2h1.5l5.9,8.8V2h1.4v11.2h-1.5l-5.9-8.8v8.8h-1.4Z"/>
        <path class="cls-4" d="M381,13.2v-4.7l-4.3-6.4h1.8l2.2,3.4c.4.6.8,1.3,1.1,1.9.3-.6.7-1.2,1.2-2l2.2-3.3h1.7l-4.5,6.4v4.7h-1.5,0Z"/>
      </g>
      <path class="cls-1" d="M173,22v9.3h-24.6v6h21.8v9.8h-21.7v6.5h24.5v9.5h-39.3V22h39.3ZM181.7,22v41h36.9v-9.5h-21.3v-31.6h-15.6ZM227.1,63h15.1v-16.1h11.8c2.5,2.7,2.7,16.1,2.7,16.1h16s-.7-12.2-3.4-16.6c-2.4-3.9-4.9-4.8-4.9-4.8,0,0,5.2-2.7,4.9-10.8-.2-5.4-6.4-8.9-13.1-8.9h-29.2v41.1h0ZM252.8,34.7c0,3.6-10.5,2.9-10.5,2.9v-5.8s10.5-.9,10.5,2.9ZM279.5,22v41h39.3v-9.5h-24.5v-6.5h21.7v-9.8h-21.8v-6h24.6v-9.3h-39.3ZM350.6,63.1h10.1l11.8-29.4v29.4h12.4V22h-19.7l-9.9,23.6-9.7-23.6h-20.9v41h13v-29.3l12.9,29.4h0Z"/>
      <g>
        <path class="cls-2" d="M16.8,105.2h1.5-1.5Z"/>
        <path class="cls-1" d="M22.6,35.9c6.5,0,13.9-3.7,13.9-10.2s-7.5-10.2-14-10.2"/>
        <path class="cls-1" d="M16.7,105.2h375.4v-27.8H46.4v-13h52.1v-20.8h-52.6v-14.8h68.2l.7-26.7H18.3c-8.2,0-14.8,6-14.8,14.4s1.1,7,2.2,9.2c.3.5.6,1,.8,1.5l.2.2c2.4,3.4,9.4,8.5,15.9,8.5"/>
        <line class="cls-1" x1="16.7" y1="105.2" x2="16.6" y2="105.2"/>
        <path class="cls-1" d="M16.8,105.2h1.5-1.5Z"/>
        <path class="cls-1" d="M22.6,71.4c-6.5,0-13.5,5.1-15.9,8.5l-.2.2c-.2.4-.4.8-.7,1.2-1.2,2.2-2.4,5.4-2.4,9.5,0,7.8,5.8,13.7,13.2,14.4"/>
        <path class="cls-1" d="M22.6,91.7c6.5,0,13.9-3.8,13.9-10.2s-7.5-10.2-14-10.2"/>
        <path class="cls-1" d="M22.6,43.2c-6.5,0-13.5,5.1-15.9,8.5,0,0-.5.8-1.1,2.2-1.8,4.3-4.8,14.4.3,27.4.3.7.5,1.3.8,2,2.4,3.4,9.4,8.5,15.9,8.5"/>
        <path class="cls-1" d="M22.6,15.5c-6.5,0-13.5,5.1-15.9,8.5l-.7.9c0,.3-.2.5-.3.8-6,14.8-3.7,22.8-.6,27.5,0,0,.2.4.5.7,1.5,2.3,6.3,8.8,17,9.7,6.5,0,13.9-3.8,13.9-10.2s-7.5-10.2-14-10.2"/>
      </g>
      <g>
        <path class="cls-4" d="M327.1,92.8h1.1c0,.3.2.7.4,1,.2.3.5.5.9.7s.8.3,1.3.3.8,0,1.2-.2c.3,0,.6-.3.8-.5.2-.2.2-.5.2-.8s0-.5-.2-.7-.4-.4-.8-.5c-.2,0-.8-.2-1.5-.4-.8-.2-1.4-.4-1.7-.6-.4-.2-.7-.5-.9-.8s-.3-.7-.3-1.1.1-.8.4-1.2c.2-.4.6-.7,1.1-.9s1-.3,1.6-.3,1.2,0,1.7.3.9.5,1.1.9c.3.4.4.9.4,1.4h-1.1c0-.5-.3-.9-.6-1.2s-.9-.4-1.5-.4-1.2,0-1.5.4-.5.6-.5.9.1.6.3.8c.2.2.8.4,1.7.6s1.6.4,1.9.6c.5.2.9.5,1.1.9s.4.8.4,1.2-.1.9-.4,1.3-.6.7-1.1,1c-.5.2-1.1.3-1.7.3s-1.5,0-2-.3c-.5-.2-1-.6-1.3-1-.3-.5-.5-1-.5-1.6h0Z"/>
        <path class="cls-4" d="M335.5,98.1v-8.8h1v.8c.2-.3.5-.6.8-.7s.6-.2,1-.2,1,0,1.4.4.7.7.9,1.2.3,1.1.3,1.7-.1,1.2-.4,1.8-.6.9-1,1.2-.9.4-1.4.4-.7,0-1-.2-.5-.3-.7-.6v3.1h-1.1.2ZM336.5,92.5c0,.8.2,1.4.5,1.8s.7.6,1.2.6.9-.2,1.2-.6.5-1,.5-1.9-.2-1.4-.5-1.8-.7-.6-1.2-.6-.9.2-1.2.6-.5,1.1-.5,1.9h0Z"/>
        <path class="cls-4" d="M342.6,95.6v-1.2h1.2v1.2h-1.2Z"/>
        <path class="cls-4" d="M348.5,95.6v-.9l4-4.6h-3.8v-.9h5.2v.7l-3.4,4-.7.7h4.3v.9h-5.6Z"/>
        <path class="cls-4" d="M358.1,92.5c0-1.2.3-2,1-2.6.5-.5,1.2-.7,2-.7s1.6.3,2.1.8c.5.6.8,1.4.8,2.4s-.1,1.4-.4,1.9c-.2.5-.6.8-1.1,1.1-.5.3-1,.4-1.5.4-.9,0-1.6-.3-2.1-.8s-.8-1.4-.8-2.4h0ZM359.2,92.5c0,.8.2,1.4.5,1.8s.8.6,1.3.6,1-.2,1.3-.6c.4-.4.5-1,.5-1.8s-.2-1.4-.5-1.8c-.4-.4-.8-.6-1.3-.6s-1,.2-1.3.6c-.4.4-.5,1-.5,1.8Z"/>
        <path class="cls-4" d="M365.6,95.6v-1.2h1.2v1.2h-1.2Z"/>
        <path class="cls-4" d="M371.7,92.5c0-1.2.3-2,1-2.6.5-.5,1.2-.7,2-.7s1.6.3,2.1.8c.5.6.8,1.4.8,2.4s-.1,1.4-.4,1.9c-.2.5-.6.8-1.1,1.1-.5.3-1,.4-1.5.4-.9,0-1.6-.3-2.1-.8s-.8-1.4-.8-2.4h0ZM372.8,92.5c0,.8.2,1.4.5,1.8s.8.6,1.3.6,1-.2,1.3-.6c.4-.4.5-1,.5-1.8s-.2-1.4-.5-1.8c-.4-.4-.8-.6-1.3-.6s-1,.2-1.3.6c-.4.4-.5,1-.5,1.8Z"/>
        <path class="cls-4" d="M379.2,95.6v-1.2h1.2v1.2h-1.2Z"/>
      </g>
    </g>
  </g>
</svg>